{"title":"Marc Dorcel: Initiations Anales 1 (2005,xvid) - Cristina Bella,C","uid":4712985,"size":1132344306,"categoryP":"porn","categoryS":"movies","magnet":"?xt=urn:btih:2b7098a7e5ba89fb4b48d0efae2718348651dc26&amp;dn=Marc+Dorcel%3A+Initiations+Anales+1+%282005%2Cxvid%29+-+Cristina+Bella%2CC&amp;tr=udp%3A%2F%2Ftracker.openbittorrent.com%3A80&amp;tr=udp%3A%2F%2Fopen.demonii.com%3A1337&amp;tr=udp%3A%2F%2Ftracker.coppersurfer.tk%3A6969&amp;tr=udp%3A%2F%2Fexodus.desync.com%3A6969","seeders":0,"leechers":4,"uploader":"pure_screens","files":1,"time":1234132830,"description":"Initiations Anales 1 (2008, DVD.xvid)\n\n\n\n\n\n\n\nscreenshots + large DVD-covers:\n &lt;a href=&quot;\nhttp://scr33ns.blogbugs.org/7286954/Initiations-Anales-1---screens.html&quot; rel=&quot;nofollow&quot; target=&quot;_NEW&quot;&gt;\nhttp://scr33ns.blogbugs.org/7286954/Initiations-Anales-1---screens.html&lt;/a&gt;\n\n\n\n\n\n\nDans ce genre de casting hors du commun, de jeunes debutantes, candidates hyper motivees a des carrieres de hardeuses, s'offrent sans retenue a des partenaires chevronnes charges de decouvrir et de mettre en valeur leurs talents les plus secrets. Ravis, nos etalons profitent de l'aubaine pour remettre le couvert plusieurs fois et repousser les limites du plaisir. Tou y passe: outre les penetrations multiples ou les sodomies en chaine mettan a rude epreuve leurs petits trous largement dilates, nos gamines se pretent a des jeux inusites tels une double penetration vaginale (deux verges a la fois dan le vagin). Mieux, l'une des concurrentes particulierement excitee, non contente de se preter a d'incroyables fataisies sexuelles, prend resolument l'initaitive, imposant sex penetrations favorites et ses positions preferees et profitnat, a son gout, des bonnes dispositions de son partenaire. \n\n\nStarring:\nCristina Bella, Andrea Nobili, Angelika Wild, Lucy Anne, Claudia Rossi, Luna Lombardi \n\n\nDirector:   Peter The Kid\nStudio:     Marc Dorcel \nReleased:   2005\nLanguage:   French\n\n\nComplete name                    : D:Initiations Anales.avi\nFormat                           : AVI\nFormat/Info                      : Audio Video Interleave\nFile size                        : 1.05 GiB\nDuration                         : 2h 33mn\nOverall bit rate                 : 982 Kbps\n\nVideo\nFormat                           : MPEG-4 Visual\nFormat settings, BVOP            : No\nFormat settings, QPel            : No\nFormat settings, GMC             : No warppoints\nFormat settings, Matrix          : Default\nCodec ID                         : DX50\nCodec ID/Hint                    : DivX 5\nDuration                         : 2h 33mn\nBit rate                         : 780 Kbps\nWidth                            : 720 pixels\nHeight                           : 480 pixels\nDisplay aspect ratio             : 1.500\nFrame rate                       : 25.000 fps\nStandard                         : NTSC\nResolution                       : 24 bits\nColorimetry                      : 4:2:0\nScan type                        : Progressive\nBits/(Pixel*Frame)               : 0.090\nStream size                      : 858 MiB (79%)\nWriting library                  : DivX 5.0.5 (UTC 2003-04-24)\n\nAudio\nFormat                           : MPEG Audio\nFormat version                   : Version 1\nFormat profile                   : Layer 3\nCodec ID                         : 55\nCodec ID/Hint                    : MP3\nDuration                         : 2h 33mn\nBit rate mode                    : Constant\nBit rate                         : 192 Kbps\nChannel(s)                       : 2 channels\nSampling rate                    : 44.1 KHz\nResolution                       : 16 bits\nStream size                      : 211 MiB (20%)\nAlignment                        : Split accross interleaves\nInterleave, duration             : 40 ms (1.00 video frame)\nWriting library                  : LAMELAME_MAJOR_VERSI\n\n\n\n\n\n\n\n\n.","torrent":{"xt":"urn:btih:2b7098a7e5ba89fb4b48d0efae2718348651dc26","amp;dn":"Marc+Dorcel%3A+Initiations+Anales+1+%282005%2Cxvid%29+-+Cristina+Bella%2CC","amp;tr":["udp%3A%2F%2Ftracker.openbittorrent.com%3A80","udp%3A%2F%2Fopen.demonii.com%3A1337","udp%3A%2F%2Ftracker.coppersurfer.tk%3A6969","udp%3A%2F%2Fexodus.desync.com%3A6969"],"infoHash":"2b7098a7e5ba89fb4b48d0efae2718348651dc26","infoHashBuffer":{"type":"Buffer","data":[43,112,152,167,229,186,137,251,75,72,208,239,174,39,24,52,134,81,220,38]},"announce":[],"urlList":[]}}